REM DIRINDEX 1\6,1\2\7,1\2\8,1\2\9,1\3\10,1\3\11,1\4\12,1\4\13,1\4\14,1\5\15,1\5\16,1\5\17
REM DIRNAME folder01,folder02,folder03,folder04,folder05,folder06,folder07,folder08,folder09,folder10,folder11,folder12,folder13,folder14,folder15,folder16,folder17
TITLE ""
FILE "3Q_t_0408-0423.mp3" MP3
  TRACK 01 AUDIO
    TITLE "10:cjc041_2423"
    INDEX 01 00:00:00
  TRACK 02 AUDIO
    TITLE "0:"
    INDEX 01 00:00:72
  TRACK 03 AUDIO
    TITLE "11:cjc041_2424"
    INDEX 01 00:01:44
  TRACK 04 AUDIO
    TITLE "0:"
    INDEX 01 00:03:39
  TRACK 05 AUDIO
    TITLE "10:cjc041_2425"
    INDEX 01 00:04:15
  TRACK 06 AUDIO
    TITLE "0:"
    INDEX 01 00:05:24
  TRACK 07 AUDIO
    TITLE "11:cjc041_2426"
    INDEX 01 00:06:02
  TRACK 08 AUDIO
    TITLE "0:"
    INDEX 01 00:06:69
  TRACK 09 AUDIO
    TITLE "10:cjc041_2427"
    INDEX 01 00:07:51
  TRACK 10 AUDIO
    TITLE "0:"
    INDEX 01 00:08:60
  TRACK 11 AUDIO
    TITLE "11:cjc041_2428"
    INDEX 01 00:09:40
  TRACK 12 AUDIO
    TITLE "0:"
    INDEX 01 00:10:49
  TRACK 13 AUDIO
    TITLE "10:cjc041_2429"
    INDEX 01 00:11:27
  TRACK 14 AUDIO
    TITLE "0:"
    INDEX 01 00:12:52
  TRACK 15 AUDIO
    TITLE "11:cjc041_2430"
    INDEX 01 00:13:22
  TRACK 16 AUDIO
    TITLE "0:"
    INDEX 01 00:15:25
  TRACK 17 AUDIO
    TITLE "10:cjc041_2431"
    INDEX 01 00:16:00
  TRACK 18 AUDIO
    TITLE "0:"
    INDEX 01 00:17:43
  TRACK 19 AUDIO
    TITLE "11:cjc041_2432"
    INDEX 01 00:18:19
  TRACK 20 AUDIO
    TITLE "0:"
    INDEX 01 00:19:30
  TRACK 21 AUDIO
    TITLE "10:cjc041_2433"
    INDEX 01 00:20:12
  TRACK 22 AUDIO
    TITLE "0:"
    INDEX 01 00:21:27
  TRACK 23 AUDIO
    TITLE "11:cjc041_2434"
    INDEX 01 00:22:05
  TRACK 24 AUDIO
    TITLE "0:"
    INDEX 01 00:24:18
  TRACK 25 AUDIO
    TITLE "10:cjc041_2435"
    INDEX 01 00:24:71
  TRACK 26 AUDIO
    TITLE "0:"
    INDEX 01 00:26:09
  TRACK 27 AUDIO
    TITLE "11:cjc041_2436"
    INDEX 01 00:26:62
  TRACK 28 AUDIO
    TITLE "0:"
    INDEX 01 00:29:34
  TRACK 29 AUDIO
    TITLE "10:cjc041_2437"
    INDEX 01 00:30:12
  TRACK 30 AUDIO
    TITLE "0:"
    INDEX 01 00:31:27
  TRACK 31 AUDIO
    TITLE "11:cjc041_2438"
    INDEX 01 00:32:09
  TRACK 32 AUDIO
    TITLE "0:"
    INDEX 01 00:33:24
  TRACK 33 AUDIO
    TITLE "10:cjc041_2439"
    INDEX 01 00:34:02
  TRACK 34 AUDIO
    TITLE "0:"
    INDEX 01 00:35:39
  TRACK 35 AUDIO
    TITLE "11:cjc041_2440"
    INDEX 01 00:36:15
  TRACK 36 AUDIO
    TITLE "0:"
    INDEX 01 00:37:10
  TRACK 37 AUDIO
    TITLE "10:cjc041_2441"
    INDEX 01 00:37:65
  TRACK 38 AUDIO
    TITLE "0:"
    INDEX 01 00:39:13
  TRACK 39 AUDIO
    TITLE "11:cjc041_2442"
    INDEX 01 00:39:62
  TRACK 40 AUDIO
    TITLE "0:"
    INDEX 01 00:41:18
  TRACK 41 AUDIO
    TITLE "10:cjc041_2443"
    INDEX 01 00:41:73
  TRACK 42 AUDIO
    TITLE "0:"
    INDEX 01 00:43:31
  TRACK 43 AUDIO
    TITLE "11:cjc041_2444"
    INDEX 01 00:44:11
  TRACK 44 AUDIO
    TITLE "0:"
    INDEX 01 00:47:01
  TRACK 45 AUDIO
    TITLE "10:cjc041_2445"
    INDEX 01 00:47:58
  TRACK 46 AUDIO
    TITLE "0:"
    INDEX 01 00:49:00
  TRACK 47 AUDIO
    TITLE "11:cjc041_2446"
    INDEX 01 00:49:55
  TRACK 48 AUDIO
    TITLE "0:"
    INDEX 01 00:51:13
  TRACK 49 AUDIO
    TITLE "10:cjc041_2447"
    INDEX 01 00:51:63
  TRACK 50 AUDIO
    TITLE "0:"
    INDEX 01 00:53:06
  TRACK 51 AUDIO
    TITLE "11:cjc041_2448"
    INDEX 01 00:53:58
  TRACK 52 AUDIO
    TITLE "0:"
    INDEX 01 00:55:42
  TRACK 53 AUDIO
    TITLE "10:cjc041_2449"
    INDEX 01 00:56:18
  TRACK 54 AUDIO
    TITLE "0:"
    INDEX 01 00:57:48
  TRACK 55 AUDIO
    TITLE "11:cjc041_2450"
    INDEX 01 00:58:22
  TRACK 56 AUDIO
    TITLE "0:"
    INDEX 01 00:59:12
  TRACK 57 AUDIO
    TITLE "10:cjc041_2451"
    INDEX 01 00:59:67
  TRACK 58 AUDIO
    TITLE "0:"
    INDEX 01 01:01:03
  TRACK 59 AUDIO
    TITLE "11:cjc041_2452"
    INDEX 01 01:01:52
  TRACK 60 AUDIO
    TITLE "0:"
    INDEX 01 01:02:69
  TRACK 61 AUDIO
    TITLE "10:cjc041_2453"
    INDEX 01 01:03:47
  TRACK 62 AUDIO
    TITLE "0:"
    INDEX 01 01:04:66
  TRACK 63 AUDIO
    TITLE "11:cjc041_2454"
    INDEX 01 01:05:44
  TRACK 64 AUDIO
    TITLE "0:"
    INDEX 01 01:06:67
